<?xml version="1.0" encoding="UTF-8" standalone="no"?>
<!-- Created with Inkscape (http://www.inkscape.org/) -->

<svg
   width="927.17529"
   height="720"
   viewBox="0 0 245.31513 190.50001"
   version="1.1"
   id="svg1"
   xmlns="http://www.w3.org/2000/svg"
   xmlns:svg="http://www.w3.org/2000/svg">
  <defs
     id="defs1" />
  <g
     id="layer1"
     style="display:inline;fill:#ffffff"
     transform="matrix(0.73457883,0,0,0.73457883,13.572627,22.651583)">
    <path
       id="path10"
       style="display:inline;fill-rule:evenodd;stroke-width:0.759201;stroke-linecap:square;stroke-miterlimit:16;paint-order:fill markers stroke"
       d="m 127.52568,-30.83615 -3.02502,0.563672 1.45164,7.788092 c -0.8825,-0.268459 -1.70714,-0.431809 -2.47258,-0.488994 -0.76743,-0.06791 -1.6227,-0.01426 -2.5667,0.161635 -1.04057,0.193875 -2.00909,0.597184 -2.90533,1.208161 -0.88551,0.608979 -1.61677,1.388409 -2.19433,2.3396 -0.58428,0.974645 -0.9861,2.098097 -1.20407,3.370781 -0.20727,1.270685 -0.16822,2.667941 0.1156,4.191226 0.54567,2.9285697 1.5992,5.102433 3.1621,6.5205963 1.57364,1.4161667 3.43294,1.9240118 5.57842,1.5242685 1.10492,-0.2058657 2.09042,-0.605724 2.95647,-1.1999783 0.86605,-0.5942517 1.66378,-1.3480165 2.39279,-2.2608269 l 0.35089,1.8823178 3.025,-0.5636723 z m -28.622497,4.585081 -2.541116,0.913539 c 0.343516,1.40712 0.348306,2.518483 0.01546,3.333954 -0.322707,0.811777 -0.940812,1.381875 -1.854697,1.710454 -0.934437,0.335962 -1.789651,0.29603 -2.565667,-0.120713 -0.765733,-0.420437 -1.453864,-1.286264 -2.064419,-2.597396 l -2.556483,0.919677 c 0.712657,1.691871 1.76892,2.905982 3.170283,3.6429 1.411595,0.733219 2.985776,0.78761 4.721126,0.16368 1.735375,-0.623932 2.907842,-1.665755 3.519126,-3.126286 0.621553,-1.464222 0.67408,-3.077791 0.156519,-4.839807 z m 56.687447,0.928883 -3.07615,0.06853 0.30177,13.646806 c -0.80394,0.661771 -1.67588,1.21043 -2.61581,1.6460051 -0.92903,0.4353276 -1.79078,0.6626497 -2.58716,0.6802943 -0.89454,0.019812 -1.57922,-0.074549 -2.05316,-0.2823483 -0.47393,-0.2077947 -0.86307,-0.5484911 -1.16827,-1.0219751 -0.29405,-0.462818 -0.4926,-1.021001 -0.59435,-1.673626 -0.10194,-0.663534 -0.16355,-1.458344 -0.18414,-2.385634 l -0.23017,-10.407992 -3.07617,0.06853 0.26291,11.863719 c 0.0503,2.269131 0.62241,3.980931 1.71762,5.1354546 1.09497,1.1436083 2.60264,1.6946663 4.52267,1.6521432 1.14549,-0.025369 2.18788,-0.2668881 3.12732,-0.7242826 0.93945,-0.4573945 1.91877,-1.1066393 2.93703,-1.9477905 l 0.0451,2.0286072 3.07615,-0.067523 z m 11.65912,0.693594 -2.56977,18.1019679 3.04649,0.4327281 1.91914,-13.515863 c 0.92238,-0.519307 1.86587,-0.919305 2.83166,-1.201 0.96578,-0.281693 1.86474,-0.363625 2.69663,-0.24552 0.81026,0.115042 1.45381,0.321993 1.92937,0.620961 0.4771,0.288161 0.81836,0.678211 1.02402,1.170311 0.20053,0.44735 0.29714,1.044865 0.29055,1.793316 -0.006,0.737648 -0.0671,1.523066 -0.18517,2.354944 l -1.46392,10.3067157 3.0465,0.4317048 1.66851,-11.7481195 c 0.31443,-2.214743 0.0418,-3.984009 -0.81737,-5.30732 -0.85917,-1.323312 -2.26646,-2.124375 -4.22192,-2.402002 -1.06957,-0.151851 -2.14302,-0.07779 -3.22143,0.220968 -1.07844,0.298767 -2.14952,0.774421 -3.21222,1.428107 l 0.28542,-2.009171 z m -43.1593,4.305803 c 0.66962,0.01953 1.44614,0.134992 2.32937,0.34782 l 1.92118,10.3148983 c -0.64971,0.74264 -1.37846,1.3885035 -2.18614,1.938583 -0.80969,0.539352 -1.64306,0.8897011 -2.50124,1.0495973 -1.6091,0.2998078 -2.88147,-0.035575 -3.81681,-1.0045845 -0.93732,-0.979733 -1.60528,-2.5362711 -2.00302,-4.6710141 -0.40375,-2.166926 -0.24335,-3.928917 0.48081,-5.284812 0.72415,-1.355896 1.93366,-2.191574 3.62857,-2.50737 0.76164,-0.141914 1.47765,-0.202651 2.14728,-0.183118 z m 90.47812,0.908424 -9.95379,22.2471597 14.65754,6.5574233 1.17646,-2.6301299 -11.69903,-5.2336632 3.69712,-8.2617416 11.69799,5.2336645 1.17645,-2.629108 -11.698,-5.2346864 2.72732,-6.0960504 11.698,5.234686 1.17644,-2.630131 z m -111.53759,1.402532 -2.71093,0.974917 0.0809,0.8051 c -0.897276,-0.141226 -1.71961,-0.186671 -2.467472,-0.138104 -0.741271,0.0346 -1.610549,0.23011 -2.606595,0.588224 -0.944709,0.339655 -1.819773,0.886805 -2.627059,1.640891 -0.810966,0.743816 -1.419707,1.60074 -1.825036,2.569773 -0.438171,1.038836 -0.673505,2.1729416 -0.706896,3.4024941 -0.02683,1.2155957 0.225383,2.5621905 0.757021,4.0408473 0.970958,2.7005998 2.324572,4.5797534 4.061302,5.6367251 1.743321,1.0430111 3.642369,1.1956594 5.696065,0.4572795 1.2322,-0.4430276 2.18226,-0.97683446 2.8511,-1.5999706 0.67541,-0.63709547 1.32398,-1.4615461 1.94575,-2.473611 l 0.56469,1.57132637 c 0.25112,0.69825318 0.40115,1.35731342 0.45011,1.97745663 0.049,0.6201432 -0.0341,1.1950897 -0.24961,1.724777 -0.20801,0.5502213 -0.59296,1.0595967 -1.15496,1.52836 -0.562,0.4687646 -1.33542,0.880339 -2.3212,1.2347604 -1.02683,0.3691868 -2.10409,0.5996002 -3.230623,0.6915469 -1.122827,0.1022169 -1.953222,0.1459497 -2.492026,0.1309442 l -0.154462,0.055247 1.063915,2.957491 c 0.926926,-0.066565 1.843992,-0.1936578 2.750846,-0.3805568 0.92082,-0.1803205 1.83798,-0.4345778 2.75186,-0.7631562 2.75194,-0.9894296 4.5443,-2.4045118 5.37791,-4.2464691 0.8336,-1.8419585 0.72625,-4.22122647 -0.32225,-7.1374641 z m -1.78307,4.137007 3.37281,9.3798775 c -0.51283,0.7989691 -1.13588,1.5163487 -1.87004,2.1513671 -0.72756,0.6210591 -1.51294,1.0834278 -2.35494,1.38616465 -1.571078,0.56486023 -2.874057,0.47104855 -3.909894,-0.28132515 -1.035837,-0.752375 -1.901283,-2.094011 -2.595354,-4.0244788 -0.730988,-2.0331509 -0.83171,-3.7481647 -0.301784,-5.1446623 0.529926,-1.396496 1.590953,-2.381153 3.182546,-2.953398 0.65718,-0.236276 1.342654,-0.39548 2.055209,-0.477741 0.71912,-0.09621 1.525777,-0.108029 2.421447,-0.0358 z m -25.887001,7.5834912 c -1.105241,0.1144799 -2.219553,0.4812856 -3.342138,1.1007466 -2.264268,1.2494684 -3.645892,3.0031105 -4.145192,5.2602624 -0.495011,2.2423251 -0.02241,4.6673557 1.416854,7.2755681 1.439253,2.6082149 3.23944,4.3004407 5.400412,5.0771447 2.170526,0.771435 4.387271,0.532345 6.651543,-0.717122 2.245168,-1.238923 3.620161,-2.9819734 4.124722,-5.2295716 0.504575,-2.247597 0.03781,-4.6755387 -1.401505,-7.28375236 C 82.626336,-3.4162714 80.8214,-5.1055854 78.650875,-5.8770204 77.562977,-6.267514 76.46615,-6.4058185 75.360909,-6.2913348 Z m 0.07672,2.738569 c 0.703386,-0.057866 1.397367,0.054264 2.082825,0.3365672 1.365637,0.5550371 2.620599,1.8694429 3.764633,3.94263756 C 82.402749,2.7518655 82.835531,4.5066011 82.583271,5.9918147 82.335304,7.4622029 81.49468,8.5932786 80.061584,9.3840802 78.6094,10.185426 77.192485,10.294116 75.811024,9.7104168 74.424298,9.1171627 73.177041,7.8170624 72.069918,5.8107444 70.925893,3.7375485 70.478785,1.9780775 70.727743,0.5320697 70.98099,-0.92876485 71.83883,-2.0617618 73.300585,-2.86838 c 0.721316,-0.3980367 1.433658,-0.6265149 2.137044,-0.6843858 z M 51.8841,-0.5748161 49.459592,1.3197786 54.337251,7.5621192 c -0.906889,0.1685991 -1.713778,0.403744 -2.419388,0.705869 -0.712327,0.2935268 -1.445888,0.7365826 -2.202516,1.3278529 -0.834011,0.6517399 -1.507783,1.4548359 -2.021447,2.4101849 -0.505066,0.94863 -0.795525,1.978093 -0.869549,3.088435 -0.0692,1.134258 0.09366,2.316877 0.486947,3.546738 0.401883,1.223143 1.079628,2.444483 2.033722,3.665404 1.83428,2.347268 3.771988,3.79033 5.812681,4.328309 2.049297,0.531262 3.933486,0.125402 5.653092,-1.218391 0.885592,-0.692055 1.575961,-1.502007 2.070551,-2.4286 0.494588,-0.926593 0.854174,-1.962793 1.080287,-3.108893 l 1.179518,1.508923 2.424508,-1.894593 z m 185.49939,0.49922399 c -0.52503,0.0133743 -1.0426,0.08448672 -1.55189,0.21278415 -1.09413,0.27212667 -2.14269,0.7626299 -3.14674,1.47311796 -0.98894,0.7073827 -1.91583,1.7170807 -2.78051,3.0291003 -1.57921,2.3962586 -2.27101,4.6063781 -2.07566,6.6300577 0.21045,2.020572 1.22627,3.63171 3.04854,4.832647 1.09334,0.720561 2.08949,1.161048 2.9892,1.322737 0.91484,0.158581 1.96395,0.183849 3.14675,0.07468 l -0.91866,1.394347 c -0.40832,0.619565 -0.84559,1.134703 -1.31251,1.545751 -0.46693,0.411049 -0.97733,0.688569 -1.53041,0.833743 -0.56508,0.163458 -1.20395,0.161575 -1.91607,-0.0072 -0.71211,-0.168737 -1.50482,-0.541688 -2.3795,-1.118138 -0.91114,-0.600468 -1.74099,-1.32433 -2.48998,-2.170804 -0.75499,-0.837359 -1.28893,-1.475858 -1.59998,-1.916077 l -0.1361,-0.09003 -1.7299,2.623992 c 0.60901,0.701944 1.26065,1.359637 1.95393,1.973366 0.69639,0.628844 1.44991,1.210819 2.26083,1.745237 2.44182,1.609254 4.64995,2.194704 6.62391,1.757512 1.97398,-0.437191 3.81375,-1.949406 5.51908,-4.537001 l 8.91653,-13.5302081 -2.40508,-1.5846254 -0.5964,0.5473051 c -0.42495,-0.8027924 -0.88153,-1.4888516 -1.36879,-2.0582747 -0.47212,-0.5725297 -1.14993,-1.149483 -2.03371,-1.7319367 -0.83823,-0.55243123 -1.8004,-0.92619999 -2.88794,-1.12018476 -0.54074,-0.10155267 -1.07391,-0.14534167 -1.59894,-0.1319661 z m 0.21892,2.89815611 c 1.07221,-0.057891 2.13771,0.2625526 3.19688,0.9605963 0.58313,0.3843009 1.12125,0.8365513 1.61429,1.3575191 0.50818,0.5178624 1.00213,1.1569672 1.48131,1.9171011 l -5.48533,8.3231205 c -0.94693,0.06858 -1.89451,1.82e-4 -2.84291,-0.206646 -0.93325,-0.209937 -1.77355,-0.561305 -2.52067,-1.05369 -1.39404,-0.918715 -2.10077,-2.018047 -2.11965,-3.298147 -0.0189,-1.2801009 0.53657,-2.7770294 1.66544,-4.4899445 1.18893,-1.8040264 2.50112,-2.9126163 3.9365,-3.3257696 0.35884,-0.1032899 0.71674,-0.1648436 1.07414,-0.1841399 z M 55.909606,9.5743579 62.369844,17.841213 c -0.234203,0.958539 -0.583375,1.867853 -1.046528,2.72834 -0.46987,0.851886 -1.048176,1.547353 -1.736029,2.084871 -1.289699,1.007845 -2.57282,1.297235 -3.849546,0.868525 -1.283441,-0.437307 -2.59431,-1.511435 -3.931385,-3.222447 -1.357231,-1.736805 -2.026711,-3.374363 -2.00917,-4.911418 0.01754,-1.537055 0.705921,-2.836029 2.064412,-3.897626 0.610462,-0.477047 1.216685,-0.861556 1.819916,-1.152919 0.603229,-0.291364 1.346191,-0.5458735 2.228092,-0.7641811 z M 256.79796,15.489339 c -2.38536,0.199853 -4.58733,1.403241 -6.60447,3.610163 -2.03924,2.231084 -2.98574,4.529319 -2.84087,6.893991 0.15223,2.356614 1.3475,4.557888 3.58664,6.604482 0.87793,0.802439 1.81504,1.459967 2.8112,1.971319 0.99615,0.511353 2.02369,0.955771 3.08332,1.332966 l 2.2639,-2.477702 -0.12072,-0.10946 c -0.71859,-0.0064 -1.71419,-0.252068 -2.98716,-0.735538 -1.25755,-0.48416 -2.34516,-1.145368 -3.26336,-1.984617 -0.69269,-0.633118 -1.24073,-1.311387 -1.64396,-2.034746 -0.39519,-0.715997 -0.62609,-1.458663 -0.69154,-2.228092 -0.0742,-0.792207 0.0441,-1.608703 0.35395,-2.449058 0.31715,-0.848411 0.85498,-1.686969 1.61326,-2.516579 l 9.94253,9.0873 1.12632,-1.23169 c 1.78886,-1.957235 2.67458,-3.920711 2.6557,-5.889406 -0.0102,-1.961333 -0.92644,-3.773462 -2.74674,-5.437239 -1.96529,-1.796289 -4.14456,-2.598588 -6.538,-2.406094 z m 0.81125,2.582049 c 1.38012,-0.05429 2.67731,0.475033 3.89354,1.586672 1.20775,1.104274 1.80838,2.250519 1.80047,3.440346 -2.8e-4,1.197186 -0.54098,2.395395 -1.62248,3.594818 l -7.73284,-7.066878 c 1.06841,-0.974843 2.28925,-1.493313 3.66131,-1.554958 z m -238.589972,13.778774 -2.154437,2.720154 2.501233,1.98155 2.155458,-2.720155 z m 255.448992,1.232714 c -2.35366,-0.192443 -4.68858,0.655432 -7.0055,2.545221 -1.24302,1.013865 -2.19171,2.069272 -2.84598,3.166181 -0.65429,1.096911 -1.0343,2.202697 -1.13962,3.316564 -0.11228,1.10541 0.0272,2.209111 0.41943,3.311448 0.40064,1.095441 1.01913,2.155297 1.85367,3.178457 0.65522,0.80331 1.37802,1.473349 2.16876,2.011217 0.79764,0.546324 1.71076,1.06229 2.7396,1.546775 l 2.62501,-2.142161 -0.10334,-0.126845 c -0.2886,-0.06032 -0.65871,-0.159832 -1.10995,-0.298714 -0.44278,-0.14578 -0.89411,-0.319877 -1.35446,-0.521731 -0.52709,-0.231896 -1.057,-0.544694 -1.59076,-0.940136 -0.53376,-0.395441 -0.99713,-0.834615 -1.39026,-1.316599 -1.13111,-1.386765 -1.55411,-2.837472 -1.26852,-4.351839 0.30096,-1.512805 1.30568,-2.965795 3.01376,-4.358998 1.75884,-1.434589 3.40791,-2.131994 4.94722,-2.092034 1.55466,0.04152 2.88309,0.739092 3.98663,2.092034 0.60003,0.73566 1.06192,1.612352 1.38515,2.630131 0.33004,1.026233 0.50836,2.133393 0.53502,3.3227 l 0.10322,0.126845 2.65161,-2.161596 c -0.20131,-0.920088 -0.50862,-1.866206 -0.92173,-2.838823 -0.40621,-0.964161 -0.94092,-1.852126 -1.60304,-2.66389 -1.70357,-2.088601 -3.73548,-3.233308 -6.09605,-3.434207 z m -250.669542,2.80404 -1.910961,2.412231 14.33017,11.353244 1.910962,-2.412231 z m 270.065602,9.02592 -2.67822,1.735007 1.88744,2.912477 2.67822,-1.736028 z m -277.31355,0.230176 -2.03679,3.301216 3.122192,12.368059 -13.9035799,-8.574778 -1.6153146,2.618878 21.6773475,13.369574 1.615316,-2.618876 -5.196833,-3.205056 -0.567765,-2.696627 10.661696,-2.039859 2.130906,-3.454668 -13.157814,2.596372 z m 272.174,3.334975 -15.34395,9.942529 1.67362,2.582049 15.34294,-9.942527 z m -137.0174,1.303302 -0.66086,0.693593 c -2.42374,2.541216 -3.73851,6.640034 -4.73649,10.07961 -0.24627,0.848712 -0.30606,2.251126 0.0604,3.053652 0.73933,1.619394 1.92862,2.459852 3.34519,2.805063 0.32382,0.07892 0.6551,-0.149045 0.73043,-0.473648 1.20253,-5.181333 0.86288,-5.483049 2.05726,-0.002 0.071,0.325774 0.39842,0.554613 0.72224,0.475695 1.42663,-0.347677 2.62341,-1.197812 3.36156,-2.839846 0.35315,-0.785574 0.48818,-2.196966 0.21177,-3.007617 -1.05528,-3.094825 -4.71855,-8.455868 -5.09146,-10.784456 z m -40.01974,6.95537 c -0.37292,2.328588 -4.03617,7.688609 -5.09147,10.783433 -0.27642,0.810651 -0.14032,2.223066 0.21279,3.00864 0.73815,1.642034 1.93392,2.491146 3.36055,2.838823 0.32382,0.07892 0.65125,-0.148898 0.72224,-0.474672 1.19439,-5.480993 0.85471,-5.179276 2.05725,0.002 0.0754,0.324605 0.4066,0.551537 0.73041,0.472625 1.41661,-0.345211 2.60587,-1.184646 3.34521,-2.80404 0.3664,-0.802527 0.30663,-2.205964 0.0603,-3.054675 -0.99799,-3.439576 -2.31174,-7.538394 -4.73546,-10.07961 z m 77.49525,0 c -0.37292,2.328588 -4.03617,7.688609 -5.09146,10.783433 -0.27642,0.810651 -0.14136,2.223066 0.21175,3.00864 0.73817,1.642034 1.93494,2.491146 3.36158,2.838823 0.32382,0.07892 0.65022,-0.148898 0.72122,-0.474672 1.19439,-5.480993 0.85575,-5.179276 2.05827,0.002 0.0754,0.324605 0.4066,0.551537 0.73042,0.472625 1.4166,-0.345211 2.60586,-1.184646 3.34521,-2.80404 0.3664,-0.802527 0.30661,-2.205964 0.0603,-3.054675 -0.998,-3.439576 -2.31276,-7.538394 -4.73648,-10.07961 z m 115.75337,0.93809 c -1.60437,0.892358 -2.69646,2.075639 -3.27668,3.548783 -0.57541,1.482954 -0.458,3.052635 0.3509,4.709888 0.80888,1.657255 1.97214,2.710148 3.49046,3.159021 1.52314,0.458681 3.13223,0.335713 4.82753,-0.370324 l -1.18462,-2.427578 c -1.36142,0.494506 -2.46563,0.620867 -3.31247,0.37851 -0.84203,-0.232551 -1.47577,-0.785526 -1.90176,-1.658281 -0.4355,-0.892368 -0.48849,-1.746919 -0.15856,-2.563636 0.33469,-0.80691 1.12,-1.585015 2.35699,-2.334484 z m -13.53224,4.329333 c -1.21129,0.105525 -2.52338,0.502564 -3.93549,1.191792 -2.57903,1.258803 -4.29911,2.809209 -5.16101,4.650554 -0.84734,1.846366 -0.79257,3.750157 0.1647,5.711405 0.57435,1.176747 1.20754,2.063688 1.89971,2.66082 0.70673,0.602151 1.59739,1.156359 2.67104,1.66442 l -1.50073,0.732466 c -0.66683,0.325473 -1.30597,0.546753 -1.9171,0.662904 -0.61113,0.116166 -1.19118,0.0962 -1.74114,-0.06036 -0.56957,-0.146979 -1.1179,-0.474371 -1.645,-0.982078 -0.52706,-0.507709 -1.0208,-1.232475 -1.48028,-2.173873 -0.47862,-0.980623 -0.82448,-2.025637 -1.03832,-3.135491 -0.22366,-1.105068 -0.35734,-1.926142 -0.40103,-2.463382 l -0.0715,-0.147313 -2.82451,1.377981 c 0.16693,0.914195 0.39285,1.812396 0.67722,2.693556 0.27937,0.895752 0.6318,1.779882 1.05779,2.652635 1.28273,2.628072 2.88439,4.256398 4.80604,4.88482 1.92169,0.628425 4.27578,0.262663 7.06075,-1.096654 l 14.56239,-7.107798 -1.26442,-2.588186 -0.7918,0.167771 c 0.0429,-0.907307 -3.3e-4,-1.730345 -0.12986,-2.468496 -0.11509,-0.733132 -0.40426,-1.575604 -0.86854,-2.526807 -0.44034,-0.902174 -1.07971,-1.713189 -1.9171,-2.433716 -0.82757,-0.725314 -1.7445,-1.236923 -2.75187,-1.534498 -1.0803,-0.32268 -2.23388,-0.432987 -3.45978,-0.332474 z m 1.46697,3.000456 c 0.39246,0.01111 0.76897,0.06277 1.13042,0.156518 1.44584,0.374978 2.53992,1.322948 3.28179,2.842915 0.30633,0.627599 0.53948,1.291362 0.6987,1.990756 0.17378,0.704416 0.27312,1.505845 0.29871,2.404047 l -8.95839,4.372299 c -0.84999,-0.422956 -1.63058,-0.96479 -2.34165,-1.625546 -0.69647,-0.655735 -1.24023,-1.38613 -1.6327,-2.190242 -0.73232,-1.500353 -0.78059,-2.8066 -0.14528,-3.918086 0.63529,-1.111483 1.874,-2.116995 3.71758,-3.016824 1.45623,-0.710767 2.77349,-1.049071 3.95081,-1.015837 z m -142.30734,4.586104 c -0.88522,0 -1.60304,0.716787 -1.60304,1.602016 V 93.08893 c 0,0.885232 0.71782,1.603041 1.60304,1.603039 h 2.17899 c 0.88522,2e-6 1.60304,-0.717807 1.60304,-1.603039 V 71.192658 c 0,-0.885229 -0.71782,-1.602016 -1.60304,-1.602016 z m -39.66167,6.954348 c -0.88523,0 -1.60305,0.71781 -1.60305,1.603039 V 93.08893 c 0,0.885232 0.71782,1.603041 1.60305,1.603039 h 2.17899 c 0.88522,2e-6 1.60304,-0.717807 1.60304,-1.603039 V 78.148029 c 0,-0.885229 -0.71782,-1.603039 -1.60304,-1.603039 z m 77.49422,0 c -0.88522,0 -1.602,0.71781 -1.602,1.603039 V 93.08893 c 0,0.885232 0.71678,1.603041 1.602,1.603039 h 2.18002 c 0.88522,2e-6 1.60303,-0.717807 1.60303,-1.603039 V 78.148029 c 0,-0.885229 -0.71781,-1.603039 -1.60303,-1.603039 z m 123.89643,5.169215 -3.01579,1.043458 1.13451,3.279736 3.01682,-1.043461 z m -5.84439,2.230137 -17.27743,5.979429 1.00562,2.907364 17.27845,-5.978407 z m -316.2458222,0.09105 -1.0874488,3.295079 3.0311465,1.000493 1.0874477,-3.295081 z m 5.8761058,2.146251 -0.9636646,2.921686 17.361316,5.729817 0.964688,-2.922709 z M 109.01246,97.432588 c -5.30353,0 -9.64483,4.340272 -9.64483,9.643802 v 19.09019 c 0.02593,1.88228 3.2771,2.06158 5.34721,0.004 2.25037,-2.23624 4.48409,-4.43446 6.70372,-6.71905 1.81646,-1.86962 4.71891,-1.86962 6.53388,0 l 3.37795,3.49149 c 3.2159,3.32383 8.45275,3.33168 11.61309,0 l 3.31247,-3.49149 c 1.77227,-1.86833 4.60182,-1.87071 6.37022,0 l 3.30019,3.49149 c 3.13822,3.31977 8.31503,3.32005 11.45349,0 l 3.3002,-3.49149 c 1.76839,-1.87071 4.59797,-1.86833 6.37022,0 l 3.31247,3.49149 c 3.16035,3.33168 8.39717,3.32383 11.61309,0 l 3.37895,-3.49149 c 1.81497,-1.86962 4.71638,-1.86962 6.53287,0 2.21964,2.28459 4.45335,4.48281 6.70372,6.71905 2.07013,2.05729 5.32144,1.87799 5.34721,-0.004 h 0.001 v -19.09019 c 2e-5,-5.30354 -4.3413,-9.643807 -9.64484,-9.643807 z m -116.5871058,0.09412 -0.6455122,3.159022 12.1460662,8.25969 -14.4017792,2.78972 -0.668019,3.27154 18.50503,-3.65619 6.79169,4.86231 0.658812,-3.22346 z m 318.8616358,0.390785 -18.01194,3.131397 0.52684,3.03217 13.44835,-2.33859 c 0.77819,0.71757 1.44447,1.45494 1.99689,2.21173 0.55429,0.76755 0.90265,1.56499 1.04653,2.3928 0.15088,0.87081 0.14899,1.55795 -0.008,2.06134 -0.14542,0.50153 -0.42876,0.91635 -0.84807,1.24398 -0.39078,0.3005 -0.93999,0.54581 -1.64907,0.73553 -0.69647,0.19858 -1.44277,0.36707 -2.23833,0.50536 l -10.25657,1.78309 0.52785,3.03114 11.53024,-2.00405 c 0.32251,-0.0561 0.64283,-0.12302 0.9616,-0.20052 0.32955,-0.0795 0.6146,-0.15698 0.85625,-0.23221 0.80343,0.73531 1.48933,1.49156 2.05623,2.26798 0.57767,0.77456 0.93983,1.58646 1.08746,2.43577 0.15089,0.87081 0.14797,1.55795 -0.009,2.06134 -0.15615,0.5034 -0.44308,0.91839 -0.86239,1.24601 -0.39078,0.30052 -0.94101,0.54583 -1.6501,0.73555 -0.70722,0.20044 -1.4479,0.36773 -2.22196,0.50228 l -10.25658,1.78308 0.52684,3.03218 11.69289,-2.03271 c 2.15014,-0.37373 3.74033,-1.13699 4.7692,-2.29049 1.04151,-1.14462 1.39039,-2.70617 1.04655,-4.68431 -0.19997,-1.15033 -0.61932,-2.19096 -1.25728,-3.12117 -0.6272,-0.93208 -1.56303,-1.9205 -2.80813,-2.9667 0.84094,-0.57812 1.44417,-1.34277 1.81072,-2.29254 0.3684,-0.93901 0.44627,-2.02141 0.23323,-3.247 -0.185,-1.06432 -0.58043,-2.03075 -1.18565,-2.9002 -0.60337,-0.85869 -1.37909,-1.6926 -2.32836,-2.50225 l 1.99998,-0.34782 z m -202.27453,3.303257 h 85.28231 c 3.25611,0 5.85464,2.59953 5.85464,5.85565 v 13.76445 c 0,0.86016 -0.49511,1.06701 -1.10587,0.46137 -1.50503,-1.49241 -3.00481,-2.98889 -4.49506,-4.5196 -1.62064,-1.66455 -3.76491,-2.49817 -5.90577,-2.49817 -2.14086,10e-6 -4.28133,0.83094 -5.89145,2.49817 l -3.37284,3.49149 c -1.79979,1.86962 -4.6564,1.87114 -6.43363,0 l -3.31656,-3.49149 c -3.15727,-3.32907 -8.35484,-3.32907 -11.50363,0 l -3.29916,3.49149 c -1.7616,1.86446 -4.583,1.8645 -6.34465,0 l -3.29918,-3.49149 c -3.14881,-3.32907 -8.34636,-3.32907 -11.50361,0 l -3.31657,3.49149 c -1.77724,1.87114 -4.63387,1.86962 -6.43364,0 l -3.37283,-3.49149 c -1.6101,-1.66723 -3.75059,-2.49816 -5.89146,-2.49817 -2.14086,0 -4.28411,0.83362 -5.90475,2.49817 -1.49026,1.53071 -2.99002,3.02719 -4.49505,4.5196 -0.61075,0.60564 -1.10688,0.39879 -1.10688,-0.46137 v -13.76446 c 0,-3.25611 2.59956,-5.85564 5.85564,-5.85564 z m -127.197651,21.86864 -0.291555,3.45774 3.180504,0.26802 0.291555,-3.45773 z m 6.213694,0.7202 -0.257795,3.06694 18.2185896,1.53451 0.2577956,-3.06594 z m 119.024927,5.53544 c -0.17955,-0.009 -0.38021,0.0102 -0.60461,0.0635 -1.79519,0.42877 -3.38259,3.29384 -3.18356,6.32215 v 10.30159 c 0,1.04589 0.84766,1.89357 1.89355,1.89357 h 1.47416 c 1.04588,-1e-5 1.89356,-0.84769 1.89356,-1.89357 V 131.6223 c 0,-0.74795 -0.21629,-2.21054 -1.4731,-2.27719 z m 89.19937,0 c -1.25682,0.0667 -1.47312,1.52924 -1.47312,2.2772 v 14.40996 c 0,1.0459 0.84767,1.89358 1.89357,1.89358 h 1.47414 c 1.0459,0 1.89459,-0.84768 1.89459,-1.89358 v -10.3016 c 0.19905,-3.0283 -1.38938,-5.89336 -3.18458,-6.32213 -0.22441,-0.0537 -0.42507,-0.0729 -0.6046,-0.0635 z M 94.811198,151.44488 c -7.069791,10e-6 -12.857062,5.7842 -12.857062,12.85399 v 25.44915 h 10e-4 c 0.03432,2.50914 4.367689,2.74698 7.127247,0.006 2.999815,-2.98098 5.978093,-5.91093 8.936916,-8.95636 2.421411,-2.49226 6.290381,-2.49226 8.709801,0 l 4.50326,4.65567 c 4.28691,4.43076 11.26716,4.44124 15.48002,0 l 4.41526,-4.65567 c 2.36246,-2.49056 6.1346,-2.49371 8.49191,0 l 4.39992,4.65567 c 4.18335,4.42536 11.08356,4.42572 15.26724,0 l 4.40095,-4.65567 c 2.35732,-2.49371 6.12841,-2.49056 8.49087,0 l 4.41629,4.65567 c 4.21287,4.44124 11.19209,4.43076 15.47901,0 l 4.50425,-4.65567 c 2.41943,-2.49226 6.28739,-2.49226 8.7088,0 2.95883,3.04543 5.93707,5.97538 8.93693,8.95636 2.75952,2.74243 7.09288,2.50459 7.12723,-0.006 h 10e-4 v -25.44915 c 1e-5,-7.06979 -5.78725,-12.85398 -12.85704,-12.85399 z m 0,5.04952 H 208.49503 c 4.34051,0 7.80548,3.46498 7.80548,7.80549 v 18.34851 c 0,1.14661 -0.66099,1.42214 -1.47516,0.61482 -2.00625,-1.98945 -4.00515,-3.98393 -5.99171,-6.02443 -2.16035,-2.2189 -5.01915,-3.32987 -7.873,-3.32987 -2.85384,1e-5 -5.70621,1.10741 -7.85254,3.32987 l -4.49607,4.65463 c -2.39922,2.49227 -6.2067,2.49429 -8.57581,0 l -4.42142,-4.65463 c -4.20871,-4.43774 -11.13728,-4.43774 -15.33474,0 l -4.39889,4.65463 c -2.34826,2.48539 -6.10778,2.48545 -8.45612,0 l -4.39889,-4.65463 c -4.19745,-4.43774 -11.12605,-4.43774 -15.33476,0 l -4.4214,4.65463 c -2.36913,2.49429 -6.17659,2.49227 -8.5758,0 l -4.49608,-4.65463 c -2.14633,-2.22246 -4.9987,-3.32986 -7.85255,-3.32987 -2.853829,0 -5.712645,1.11097 -7.872996,3.32987 -1.986562,2.0405 -3.985451,4.03498 -5.991697,6.02443 -0.814172,0.80732 -1.475171,0.53179 -1.475171,-0.61482 v -18.34851 c 0,-4.34051 3.464977,-7.80549 7.805492,-7.80549 z m -2.683328,36.03515 c -0.236944,0.006 -0.499946,0.0612 -0.791805,0.17697 -2.334868,0.92503 -4.451443,4.74461 -4.186103,8.78144 v 23.23741 a 3.7711847,3.7711847 0 0 0 3.770772,3.77077 H 212.38549 a 3.7711847,3.7711847 0 0 0 3.7718,-3.77077 v -23.23741 c 0.26531,-4.03683 -1.85226,-7.85641 -4.18714,-8.78144 -0.29185,-0.1156 -0.55485,-0.171 -0.79179,-0.17697 -1.65859,-0.0416 -2.03578,2.34177 -2.03578,3.48125 v 21.69169 a 3.7711847,3.7711847 0 0 1 -3.7718,3.77078 H 97.935443 a 3.7711847,3.7711847 0 0 1 -3.770797,-3.77078 V 196.0108 c 0,-1.13948 -0.378198,-3.52289 -2.036776,-3.48125 z" />
  </g>
</svg>
