<?xml version="1.0" encoding="UTF-8" standalone="no"?>
<!-- Created with Inkscape (http://www.inkscape.org/) -->

<svg
   width="210mm"
   height="181.25085mm"
   viewBox="0 0 210 181.25085"
   version="1.1"
   id="svg1"
   xmlns:xlink="http://www.w3.org/1999/xlink"
   xmlns="http://www.w3.org/2000/svg"
   xmlns:svg="http://www.w3.org/2000/svg">
  <defs
     id="defs1">
    <linearGradient
       id="linearGradient5">
      <stop
         style="stop-color:#ffebeb;stop-opacity:1;"
         offset="0"
         id="stop5" />
      <stop
         style="stop-color:#ff7f7f;stop-opacity:0;"
         offset="0.26060605"
         id="stop6" />
    </linearGradient>
    <linearGradient
       xlink:href="#linearGradient5"
       id="linearGradient6"
       x1="104.70421"
       y1="66.34362"
       x2="104.70421"
       y2="163.33096"
       gradientUnits="userSpaceOnUse" />
  </defs>
  <g
     id="layer1"
     transform="translate(3.7537392e-6,-57.874582)">
    <path
       id="path2"
       style="opacity:1;fill:#ff8080;fill-rule:evenodd;stroke:#ff5555;stroke-width:2.64583;stroke-linecap:round;stroke-miterlimit:16;paint-order:fill markers stroke"
       d="m 67.770878,74.484701 c -1.602271,0.921342 -4.465434,3.79647 -6.213151,6.328621 -6.372866,9.233222 -7.047901,21.155188 -2.032426,30.962588 1.400821,2.7392 4.68033,6.53681 6.805449,8.76751 10.758593,11.29312 26.662617,27.03217 34.30009,34.36113 2.22237,2.13261 5.92471,2.13226 8.14753,-7.7e-4 7.63797,-7.32947 23.54183,-23.06839 34.30006,-34.36117 2.12469,-2.23026 5.40386,-6.0275 6.80468,-8.76671 5.01547,-9.8074 4.34043,-21.729365 -2.03244,-30.962585 -1.74771,-2.532147 -5.33868,-6.279963 -8.23788,-7.235048 -1.75417,-0.577869 -5.86087,-0.60664 -8.77654,0.342634 -7.22725,2.353023 -15.01909,8.882456 -21.78483,14.422501 -2.38347,1.951677 -6.31116,1.951528 -8.69485,-3.36e-4 C 93.590766,82.802963 85.798891,76.273571 78.571651,73.920736 75.656236,72.97162 70.413443,72.965182 67.770878,74.484701 Z"
       transform="matrix(2.1077479,0,0,2.1077479,-115.69006,-93.560296)" />
    <path
       id="path3"
       style="opacity:1;fill:url(#linearGradient6);fill-rule:evenodd;stroke:none;stroke-width:2.64583;stroke-linecap:round;stroke-miterlimit:16;paint-order:fill markers stroke"
       d="m 67.770878,74.484701 c -1.602271,0.921342 -4.465434,3.79647 -6.213151,6.328621 -6.372866,9.233222 -7.047901,21.155188 -2.032426,30.962588 1.400821,2.7392 4.68033,6.53681 6.805449,8.76751 10.758593,11.29312 26.662617,27.03217 34.30009,34.36113 2.22237,2.13261 5.92471,2.13226 8.14753,-7.7e-4 7.63797,-7.32947 23.54183,-23.06839 34.30006,-34.36117 2.12469,-2.23026 5.40386,-6.0275 6.80468,-8.76671 5.01547,-9.8074 4.34043,-21.729365 -2.03244,-30.962585 -1.74771,-2.532147 -5.33868,-6.279963 -8.23788,-7.235048 -1.75417,-0.577869 -5.86087,-0.60664 -8.77654,0.342634 -7.22725,2.353023 -15.01909,8.882456 -21.78483,14.422501 -2.38347,1.951677 -6.31116,1.951528 -8.69485,-3.36e-4 C 93.590766,82.802963 85.798891,76.273571 78.571651,73.920736 75.656236,72.97162 70.413443,72.965182 67.770878,74.484701 Z"
       transform="matrix(2.0717051,0,0,2.1077478,-111.91623,-90.745078)" />
  </g>
</svg>
