<?xml version="1.0" encoding="UTF-8" standalone="no"?>
<!-- Created with Inkscape (http://www.inkscape.org/) -->

<svg
   width="1080"
   height="720"
   viewBox="0 0 216 144"
   version="1.1"
   id="svg1"
   inkscape:version="1.4 (86a8ad7, 2024-10-11)"
   sodipodi:docname="kedi.svg"
   xmlns:inkscape="http://www.inkscape.org/namespaces/inkscape"
   xmlns:sodipodi="http://sodipodi.sourceforge.net/DTD/sodipodi-0.dtd"
   xmlns="http://www.w3.org/2000/svg"
   xmlns:svg="http://www.w3.org/2000/svg">
  <sodipodi:namedview
     id="namedview1"
     pagecolor="#ffffff"
     bordercolor="#000000"
     borderopacity="0.25"
     inkscape:showpageshadow="2"
     inkscape:pageopacity="0.0"
     inkscape:pagecheckerboard="0"
     inkscape:deskcolor="#d1d1d1"
     inkscape:document-units="px"
     inkscape:zoom="0.70710678"
     inkscape:cx="633.56768"
     inkscape:cy="340.11836"
     inkscape:window-width="1920"
     inkscape:window-height="1009"
     inkscape:window-x="-8"
     inkscape:window-y="-8"
     inkscape:window-maximized="1"
     inkscape:current-layer="svg1"
     showguides="true" />
  <defs
     id="defs1">
    <inkscape:path-effect
       effect="offset"
       id="path-effect10"
       is_visible="true"
       lpeversion="1.3"
       linejoin_type="miter"
       unit="px"
       offset="5"
       miter_limit="4"
       attempt_force_join="false"
       update_on_knot_move="true" />
    <inkscape:path-effect
       effect="offset"
       id="path-effect5"
       is_visible="true"
       lpeversion="1.3"
       linejoin_type="miter"
       unit="px"
       offset="5"
       miter_limit="4"
       attempt_force_join="false"
       update_on_knot_move="true" />
    <inkscape:path-effect
       effect="offset"
       id="path-effect4"
       is_visible="true"
       lpeversion="1.3"
       linejoin_type="miter"
       unit="px"
       offset="10"
       miter_limit="4"
       attempt_force_join="false"
       update_on_knot_move="true" />
    <inkscape:path-effect
       effect="fillet_chamfer"
       id="path-effect40"
       is_visible="true"
       lpeversion="1"
       nodesatellites_param="F,0,0,1,0,0,0,1 @ F,0,0,1,0,0,0,1 @ F,0,0,1,0,0,0,1 @ F,0,0,1,0,2.5483307,0,1 @ F,0,0,1,0,2.4435228,0,1 @ F,0,0,1,0,0,0,1 @ F,0,0,1,0,0,0,1 @ F,0,0,1,0,0,0,1 @ F,0,0,1,0,0,0,1 @ F,0,0,1,0,0,0,1 @ F,0,0,1,0,0,0,1 @ F,0,0,1,0,0,0,1 @ F,0,0,1,0,0,0,1 @ F,0,0,1,0,0,0,1 @ F,0,0,1,0,0,0,1 @ F,0,0,1,0,0,0,1 @ F,0,0,1,0,0,0,1 @ F,0,0,1,0,0,0,1 @ F,0,0,1,0,0,0,1 @ F,0,0,1,0,0,0,1 @ F,0,0,1,0,0,0,1 @ F,0,0,1,0,0,0,1 @ F,0,0,1,0,0,0,1 @ F,0,0,1,0,0,0,1 @ F,0,0,1,0,0,0,1 @ F,0,0,1,0,0,0,1 @ F,0,0,1,0,0,0,1 @ F,0,0,1,0,0,0,1 @ F,0,0,1,0,0,0,1 @ F,0,0,1,0,0,0,1 @ F,0,0,1,0,0,0,1 @ F,0,0,1,0,0,0,1 @ F,0,0,1,0,0,0,1 @ F,0,0,1,0,0,0,1 @ F,0,0,1,0,0,0,1 @ F,0,0,1,0,0,0,1 @ F,0,0,1,0,0,0,1 @ F,0,0,1,0,0,0,1 @ F,0,0,1,0,0,0,1 @ F,0,0,1,0,0,0,1 @ F,0,0,1,0,0,0,1 @ F,0,0,1,0,0,0,1 @ F,0,0,1,0,0,0,1 @ F,0,0,1,0,0,0,1 @ F,0,0,1,0,0,0,1 @ F,0,0,1,0,0,0,1 @ F,0,0,1,0,0,0,1 @ F,0,0,1,0,0,0,1 @ F,0,0,1,0,0,0,1"
       radius="0"
       unit="px"
       method="auto"
       mode="F"
       chamfer_steps="1"
       flexible="false"
       use_knot_distance="true"
       apply_no_radius="true"
       apply_with_radius="true"
       only_selected="false"
       hide_knots="false" />
    <inkscape:path-effect
       effect="fillet_chamfer"
       id="path-effect39"
       is_visible="true"
       lpeversion="1"
       nodesatellites_param="F,0,0,1,0,0,0,1 @ F,0,0,1,0,0,0,1 @ F,0,0,1,0,0,0,1 @ F,0,0,1,0,0,0,1 @ F,0,0,1,0,0,0,1 @ F,0,0,1,0,0,0,1 @ F,0,0,1,0,0,0,1 @ F,0,0,1,0,0.84078017,0,1 @ F,0,0,1,0,0,0,1 @ F,0,0,1,0,0,0,1 @ F,0,0,1,0,0,0,1 @ F,0,0,1,0,0,0,1 @ F,0,0,1,0,0,0,1 @ F,0,0,1,0,0,0,1 @ F,0,0,1,0,0,0,1 @ F,0,0,1,0,0,0,1 @ F,0,0,1,0,0,0,1 @ F,0,0,1,0,0,0,1 @ F,0,0,1,0,0,0,1 @ F,0,0,1,0,0,0,1 @ F,0,0,1,0,0,0,1 @ F,0,0,1,0,0,0,1 @ F,0,0,1,0,0,0,1 @ F,0,0,1,0,0,0,1 @ F,0,0,1,0,0,0,1 @ F,0,0,1,0,0,0,1 @ F,0,0,1,0,0,0,1 @ F,0,0,1,0,0,0,1 @ F,0,0,1,0,0,0,1 @ F,0,0,1,0,0,0,1 @ F,0,0,1,0,0,0,1 @ F,0,0,1,0,0,0,1 @ F,0,0,1,0,0,0,1 @ F,0,0,1,0,0,0,1 @ F,0,0,1,0,0,0,1 @ F,0,0,1,0,0,0,1 @ F,0,0,1,0,0,0,1 @ F,0,0,1,0,0,0,1 @ F,0,0,1,0,0,0,1 @ F,0,0,1,0,0,0,1 @ F,0,0,1,0,0,0,1 @ F,0,0,1,0,0,0,1 @ F,0,0,1,0,0,0,1 @ F,0,0,1,0,0,0,1 @ F,0,0,1,0,0,0,1 @ F,0,0,1,0,0,0,1 @ F,0,0,1,0,0,0,1 @ F,0,0,1,0,0,0,1"
       radius="0"
       unit="px"
       method="auto"
       mode="F"
       chamfer_steps="1"
       flexible="false"
       use_knot_distance="true"
       apply_no_radius="true"
       apply_with_radius="true"
       only_selected="false"
       hide_knots="false" />
    <inkscape:path-effect
       effect="fillet_chamfer"
       id="path-effect38"
       is_visible="true"
       lpeversion="1"
       nodesatellites_param="F,0,0,1,0,0,0,1 @ F,0,0,1,0,0,0,1 @ F,0,0,1,0,0,0,1 @ F,0,0,1,0,0,0,1 @ F,0,0,1,0,0,0,1 @ F,0,0,1,0,0,0,1 @ F,0,0,1,0,0,0,1 @ F,0,0,1,0,0,0,1 @ F,0,0,1,0,0,0,1 @ F,0,0,1,0,0,0,1 @ F,0,0,1,0,0,0,1 @ F,0,0,1,0,0,0,1 @ F,0,0,1,0,0,0,1 @ F,0,0,1,0,0,0,1 @ F,0,0,1,0,0,0,1 @ F,0,0,1,0,0,0,1 @ F,0,0,1,0,0,0,1 @ F,0,0,1,0,0,0,1 @ F,0,0,1,0,0,0,1 @ F,0,0,1,0,0,0,1 @ F,0,0,1,0,0,0,1 @ F,0,0,1,0,0,0,1 @ F,0,0,1,0,0,0,1 @ F,0,0,1,0,0,0,1 @ F,0,0,1,0,0,0,1 @ F,0,0,1,0,0,0,1 @ F,0,0,1,0,0,0,1 @ F,0,0,1,0,6.0288034,0,1 @ F,0,0,1,0,0,0,1 @ F,0,0,1,0,0,0,1 @ F,0,0,1,0,0,0,1 @ F,0,0,1,0,0,0,1 @ F,0,0,1,0,0,0,1 @ F,0,0,1,0,0,0,1 @ F,0,0,1,0,0,0,1 @ F,0,0,1,0,0,0,1 @ F,0,0,1,0,0,0,1 @ F,0,0,1,0,0,0,1 @ F,0,0,1,0,0,0,1 @ F,0,0,1,0,0,0,1 @ F,0,0,1,0,0,0,1 @ F,0,0,1,0,0,0,1 @ F,0,0,1,0,0,0,1 @ F,0,0,1,0,0,0,1 @ F,0,0,1,0,0,0,1 @ F,0,0,1,0,0,0,1 @ F,0,0,1,0,0,0,1"
       radius="0"
       unit="px"
       method="auto"
       mode="F"
       chamfer_steps="1"
       flexible="false"
       use_knot_distance="true"
       apply_no_radius="true"
       apply_with_radius="true"
       only_selected="false"
       hide_knots="false" />
    <inkscape:path-effect
       effect="fillet_chamfer"
       id="path-effect37"
       is_visible="true"
       lpeversion="1"
       nodesatellites_param="F,0,0,1,0,0,0,1 @ F,0,0,1,0,0,0,1 @ F,0,0,1,0,0,0,1 @ F,0,0,1,0,0,0,1 @ F,0,0,1,0,0,0,1 @ F,0,0,1,0,0,0,1 @ F,0,0,1,0,0,0,1 @ F,0,0,1,0,0,0,1 @ F,0,0,1,0,0,0,1 @ F,0,0,1,0,0,0,1 @ F,0,0,1,0,0,0,1 @ F,0,0,1,0,0,0,1 @ F,0,0,1,0,0,0,1 @ F,0,0,1,0,0,0,1 @ F,0,0,1,0,0,0,1 @ F,0,0,1,0,0,0,1 @ F,0,0,1,0,0,0,1 @ F,0,0,1,0,0,0,1 @ F,0,0,1,0,0,0,1 @ F,0,0,1,0,0,0,1 @ F,0,0,1,0,0,0,1 @ F,0,0,1,0,0,0,1 @ F,0,0,1,0,0,0,1 @ F,0,0,1,0,0,0,1 @ F,0,0,1,0,0,0,1 @ F,0,0,1,0,0,0,1 @ F,0,0,1,0,0,0,1 @ F,0,0,1,0,0,0,1 @ F,0,0,1,0,0,0,1 @ F,0,0,1,0,0,0,1 @ F,0,0,1,0,0,0,1 @ F,0,0,1,0,0,0,1 @ F,0,0,1,0,0,0,1 @ F,0,0,1,0,3.3249834,0,1 @ F,0,0,1,0,1.8252679,0,1 @ F,0,0,1,0,1.3558229,0,1 @ F,0,0,1,0,1.9818485,0,1 @ F,0,0,1,0,0,0,1 @ F,0,0,1,0,0,0,1 @ F,0,0,1,0,0,0,1 @ F,0,0,1,0,0,0,1 @ F,0,0,1,0,0,0,1 @ F,0,0,1,0,0,0,1"
       radius="0"
       unit="px"
       method="auto"
       mode="F"
       chamfer_steps="1"
       flexible="false"
       use_knot_distance="true"
       apply_no_radius="true"
       apply_with_radius="true"
       only_selected="false"
       hide_knots="false" />
    <inkscape:path-effect
       effect="fillet_chamfer"
       id="path-effect36"
       is_visible="true"
       lpeversion="1"
       nodesatellites_param="F,0,0,1,0,0,0,1 @ F,0,0,1,0,0,0,1 @ F,0,0,1,0,0,0,1 @ F,0,0,1,0,0,0,1 @ F,0,0,1,0,0,0,1 @ F,0,0,1,0,0,0,1 @ F,0,0,1,0,0,0,1 @ F,0,0,1,0,0,0,1 @ F,0,0,1,0,0,0,1 @ F,0,0,1,0,0,0,1 @ F,0,0,1,0,0,0,1 @ F,0,0,1,0,0,0,1 @ F,0,0,1,0,0,0,1 @ F,0,0,1,0,0,0,1 @ F,0,0,1,0,0,0,1 @ F,0,0,1,0,0,0,1 @ F,0,0,1,0,0,0,1 @ F,0,0,1,0,0,0,1 @ F,0,0,1,0,0,0,1 @ F,0,0,1,0,0,0,1 @ F,0,0,1,0,0,0,1 @ F,0,0,1,0,0,0,1 @ F,0,0,1,0,0,0,1 @ F,0,0,1,0,0,0,1 @ F,0,0,1,0,0,0,1 @ F,0,0,1,0,0,0,1 @ F,0,0,1,0,0,0,1 @ F,0,0,1,0,4.7305548,0,1 @ F,0,0,1,0,0,0,1"
       radius="0"
       unit="px"
       method="auto"
       mode="F"
       chamfer_steps="1"
       flexible="false"
       use_knot_distance="true"
       apply_no_radius="true"
       apply_with_radius="true"
       only_selected="false"
       hide_knots="false" />
    <inkscape:path-effect
       effect="fillet_chamfer"
       id="path-effect35"
       is_visible="true"
       lpeversion="1"
       nodesatellites_param="F,0,0,1,0,0,0,1 @ F,0,0,1,0,0,0,1 @ F,0,0,1,0,0,0,1 @ F,0,0,1,0,0,0,1 @ F,0,0,1,0,0,0,1 @ F,0,0,1,0,0,0,1 @ F,0,0,1,0,0,0,1 @ F,0,0,1,0,0,0,1 @ F,0,0,1,0,0,0,1 @ F,0,0,1,0,0,0,1 @ F,0,0,1,0,0,0,1 @ F,0,0,1,0,0,0,1 @ F,0,0,1,0,0,0,1 @ F,0,0,1,0,0,0,1 @ F,0,0,1,0,0,0,1 @ F,0,0,1,0,0,0,1 @ F,0,0,1,0,0,0,1 @ F,0,0,1,0,0,0,1 @ F,0,0,1,0,0,0,1 @ F,0,0,1,0,0,0,1 @ F,0,0,1,0,0,0,1 @ F,0,0,1,0,0,0,1 @ F,0,0,1,0,0,0,1 @ F,0,0,1,0,0,0,1 @ F,0,0,1,0,0,0,1 @ F,0,0,1,0,0,0,1 @ F,0,0,1,0,0,0,1 @ F,0,0,1,0,0,0,1 @ F,0,0,1,0,0,0,1 @ F,0,0,1,0,0,0,1 @ F,0,0,1,0,0,0,1 @ F,0,0,1,0,0,0,1 @ F,0,1,1,0,2.4204888,0,1 @ F,0,0,1,0,2.4204888,0,1 @ F,0,0,1,0,0,0,1 @ F,0,0,1,0,0,0,1 @ F,0,0,1,0,0,0,1 @ F,0,0,1,0,0,0,1 @ F,0,0,1,0,0,0,1 @ F,0,0,1,0,0,0,1 @ F,0,0,1,0,0,0,1"
       radius="0"
       unit="px"
       method="auto"
       mode="F"
       chamfer_steps="1"
       flexible="false"
       use_knot_distance="true"
       apply_no_radius="true"
       apply_with_radius="true"
       only_selected="false"
       hide_knots="false" />
    <inkscape:path-effect
       effect="fillet_chamfer"
       id="path-effect34"
       is_visible="true"
       lpeversion="1"
       nodesatellites_param="F,0,0,1,0,0,0,1 @ F,0,0,1,0,0,0,1 @ F,0,0,1,0,0,0,1 @ F,0,0,1,0,0,0,1 @ F,0,0,1,0,0,0,1 @ F,0,0,1,0,0,0,1 @ F,0,0,1,0,0,0,1 @ F,0,0,1,0,0,0,1 @ F,0,0,1,0,0,0,1 @ F,0,0,1,0,0,0,1 @ F,0,0,1,0,0,0,1 @ F,0,0,1,0,0,0,1 @ F,0,0,1,0,0,0,1 @ F,0,0,1,0,0,0,1 @ F,0,0,1,0,0,0,1 @ F,0,0,1,0,0,0,1 @ F,0,0,1,0,0,0,1 @ F,0,0,1,0,0,0,1 @ F,0,0,1,0,0,0,1 @ F,0,0,1,0,0,0,1 @ F,0,0,1,0,0,0,1 @ F,0,0,1,0,0,0,1 @ F,0,0,1,0,0,0,1 @ F,0,0,1,0,0,0,1 @ F,0,0,1,0,0,0,1 @ F,0,0,1,0,0,0,1 @ F,0,0,1,0,0,0,1 @ F,0,0,1,0,0,0,1 @ F,0,0,1,0,0,0,1 @ F,0,0,1,0,0,0,1 @ F,0,0,1,0,0,0,1 @ F,0,0,1,0,0,0,1 @ F,0,0,1,0,0,0,1 @ F,0,0,1,0,0,0,1 @ F,0,0,1,0,3.2544104,0,1 @ F,0,0,1,0,0,0,1 @ F,0,0,1,0,0,0,1 @ F,0,0,1,0,0,0,1 @ F,0,0,1,0,0,0,1 @ F,0,0,1,0,0,0,1"
       radius="0"
       unit="px"
       method="auto"
       mode="F"
       chamfer_steps="1"
       flexible="false"
       use_knot_distance="true"
       apply_no_radius="true"
       apply_with_radius="true"
       only_selected="false"
       hide_knots="false" />
    <inkscape:path-effect
       effect="fillet_chamfer"
       id="path-effect33"
       is_visible="true"
       lpeversion="1"
       nodesatellites_param="F,0,0,1,0,0,0,1 @ F,0,0,1,0,0,0,1 @ F,0,0,1,0,0,0,1 @ F,0,0,1,0,0,0,1 @ F,0,0,1,0,0,0,1 @ F,0,0,1,0,0,0,1 @ F,0,0,1,0,0,0,1 @ F,0,0,1,0,0,0,1 @ F,0,0,1,0,0,0,1 @ F,0,0,1,0,0,0,1 @ F,0,0,1,0,0,0,1 @ F,0,0,1,0,0,0,1 @ F,0,0,1,0,0,0,1 @ F,0,0,1,0,0,0,1 @ F,0,0,1,0,0,0,1 @ F,0,0,1,0,0,0,1 @ F,0,0,1,0,0,0,1 @ F,0,0,1,0,0,0,1 @ F,0,0,1,0,0,0,1 @ F,0,0,1,0,0,0,1 @ F,0,0,1,0,0,0,1 @ F,0,0,1,0,0,0,1 @ F,0,0,1,0,0,0,1 @ F,0,0,1,0,0,0,1 @ F,0,0,1,0,0,0,1 @ F,0,0,1,0,5.6745412,0,1 @ F,0,0,1,0,0,0,1"
       radius="0"
       unit="px"
       method="auto"
       mode="F"
       chamfer_steps="1"
       flexible="false"
       use_knot_distance="true"
       apply_no_radius="true"
       apply_with_radius="true"
       only_selected="false"
       hide_knots="false" />
    <inkscape:path-effect
       effect="offset"
       id="path-effect32"
       is_visible="true"
       lpeversion="1.3"
       linejoin_type="miter"
       unit="px"
       offset="10"
       miter_limit="4"
       attempt_force_join="false"
       update_on_knot_move="true" />
    <inkscape:path-effect
       effect="fillet_chamfer"
       id="path-effect28"
       is_visible="true"
       lpeversion="1"
       nodesatellites_param="F,0,0,1,0,0,0,1 @ F,0,0,1,0,0,0,1 @ F,0,0,1,0,0,0,1 @ F,0,0,1,0,0,0,1 @ F,0,0,1,0,0,0,1 @ F,0,0,1,0,0,0,1 @ F,0,0,1,0,0,0,1 @ F,0,0,1,0,0,0,1 @ F,0,0,1,0,0,0,1 @ F,0,0,1,0,0,0,1 @ F,0,0,1,0,0,0,1 @ F,0,0,1,0,0,0,1 @ F,0,0,1,0,0,0,1 @ F,0,0,1,0,0,0,1 @ F,0,0,1,0,0,0,1 @ F,0,0,1,0,0,0,1 @ F,0,0,1,0,0,0,1 @ F,0,0,1,0,0,0,1 @ F,0,0,1,0,0,0,1 @ F,0,0,1,0,0,0,1 @ F,0,0,1,0,0,0,1 @ F,0,0,1,0,0,0,1 @ F,0,0,1,0,0,0,1 @ F,0,0,1,0,0,0,1 @ F,0,0,1,0,0,0,1 @ F,0,0,1,0,0,0,1 @ F,0,0,1,0,0,0,1 @ F,0,0,1,0,0,0,1 @ F,0,0,1,0,0,0,1 @ F,0,0,1,0,0,0,1 @ F,0,0,1,0,0,0,1 @ F,0,0,1,0,8.9461115,0,1 @ F,0,0,1,0,0,0,1 @ F,0,0,1,0,0,0,1 @ F,0,0,1,0,0,0,1 @ F,0,0,1,0,0,0,1"
       radius="0"
       unit="px"
       method="auto"
       mode="F"
       chamfer_steps="1"
       flexible="false"
       use_knot_distance="true"
       apply_no_radius="true"
       apply_with_radius="true"
       only_selected="false"
       hide_knots="false" />
    <inkscape:path-effect
       effect="fillet_chamfer"
       id="path-effect27"
       is_visible="true"
       lpeversion="1"
       nodesatellites_param="F,0,0,1,0,0,0,1 @ F,0,0,1,0,0,0,1 @ F,0,0,1,0,0,0,1 @ F,0,0,1,0,0,0,1 @ F,0,0,1,0,0,0,1 @ F,0,0,1,0,0,0,1 @ F,0,0,1,0,0,0,1 @ F,0,0,1,0,0,0,1 @ F,0,0,1,0,0,0,1 @ F,0,0,1,0,0,0,1 @ F,0,0,1,0,0,0,1 @ F,0,0,1,0,0,0,1 @ F,0,0,1,0,0,0,1 @ F,0,0,1,0,0,0,1 @ F,0,0,1,0,0,0,1 @ F,0,0,1,0,0,0,1 @ F,0,0,1,0,0,0,1 @ F,0,0,1,0,1.6634592,0,1 @ F,0,1,1,0,1.6634592,0,1 @ F,0,1,1,0,1.6634592,0,1 @ F,0,0,1,0,0,0,1 @ F,0,0,1,0,0,0,1 @ F,0,0,1,0,0,0,1 @ F,0,0,1,0,0,0,1 @ F,0,0,1,0,0,0,1 @ F,0,0,1,0,0,0,1 @ F,0,0,1,0,0,0,1 @ F,0,0,1,0,0,0,1 @ F,0,0,1,0,0,0,1 @ F,0,0,1,0,0,0,1 @ F,0,0,1,0,0,0,1 @ F,0,0,1,0,0,0,1 @ F,0,0,1,0,0,0,1"
       radius="0"
       unit="px"
       method="auto"
       mode="F"
       chamfer_steps="1"
       flexible="false"
       use_knot_distance="true"
       apply_no_radius="true"
       apply_with_radius="true"
       only_selected="false"
       hide_knots="false" />
    <inkscape:path-effect
       effect="fillet_chamfer"
       id="path-effect26"
       is_visible="true"
       lpeversion="1"
       nodesatellites_param="F,0,0,1,0,0,0,1 @ F,0,0,1,0,0,0,1 @ F,0,0,1,0,0,0,1 @ F,0,0,1,0,0,0,1 @ F,0,0,1,0,0,0,1 @ F,0,0,1,0,0,0,1 @ F,0,0,1,0,0,0,1 @ F,0,0,1,0,0,0,1 @ F,0,0,1,0,0,0,1 @ F,0,0,1,0,0,0,1 @ F,0,0,1,0,0,0,1 @ F,0,0,1,0,1.128951,0,1 @ F,0,0,1,0,0,0,1 @ F,0,0,1,0,0,0,1 @ F,0,0,1,0,0,0,1 @ F,0,0,1,0,0,0,1 @ F,0,0,1,0,0,0,1 @ F,0,0,1,0,0,0,1 @ F,0,0,1,0,0,0,1 @ F,0,0,1,0,0,0,1 @ F,0,0,1,0,0,0,1 @ F,0,0,1,0,0,0,1 @ F,0,0,1,0,0,0,1 @ F,0,0,1,0,0,0,1 @ F,0,0,1,0,0,0,1 @ F,0,0,1,0,0,0,1 @ F,0,0,1,0,0,0,1 @ F,0,0,1,0,0,0,1 @ F,0,0,1,0,0,0,1 @ F,0,0,1,0,0,0,1 @ F,0,0,1,0,0,0,1 @ F,0,0,1,0,0,0,1"
       radius="0"
       unit="px"
       method="auto"
       mode="F"
       chamfer_steps="1"
       flexible="false"
       use_knot_distance="true"
       apply_no_radius="true"
       apply_with_radius="true"
       only_selected="false"
       hide_knots="false" />
    <inkscape:path-effect
       effect="fillet_chamfer"
       id="path-effect25"
       is_visible="true"
       lpeversion="1"
       nodesatellites_param="F,0,0,1,0,0.80818924,0,1 @ F,0,0,1,0,0.80818924,0,1 @ F,0,1,1,0,1.8107177,0,1 @ F,0,0,1,0,0.80818924,0,1 @ F,0,0,1,0,0.80818924,0,1 @ F,0,0,1,0,0.80818924,0,1 @ F,0,0,1,0,0.80818924,0,1 @ F,0,0,1,0,0.80818924,0,1"
       radius="0"
       unit="px"
       method="auto"
       mode="F"
       chamfer_steps="1"
       flexible="false"
       use_knot_distance="true"
       apply_no_radius="true"
       apply_with_radius="true"
       only_selected="false"
       hide_knots="false" />
    <inkscape:path-effect
       effect="fillet_chamfer"
       id="path-effect21"
       is_visible="true"
       lpeversion="1"
       nodesatellites_param="F,0,0,1,0,0.91011837,0,1 @ F,0,1,1,0,0.91011837,0,1 @ F,0,1,1,0,0.91011837,0,1 @ F,0,1,1,0,0.91011837,0,1 @ F,0,1,1,0,0.91011837,0,1 @ F,0,1,1,0,0.91011837,0,1 @ F,0,1,1,0,0.91011837,0,1 @ F,0,1,1,0,0.91011837,0,1 @ F,0,1,1,0,0.91011837,0,1 @ F,0,1,1,0,0.91011837,0,1 @ F,0,1,1,0,0.91011837,0,1 @ F,0,1,1,0,0.91011837,0,1 @ F,0,1,1,0,0.91011837,0,1 @ F,0,1,1,0,0.91011837,0,1"
       radius="0"
       unit="px"
       method="auto"
       mode="F"
       chamfer_steps="1"
       flexible="false"
       use_knot_distance="true"
       apply_no_radius="true"
       apply_with_radius="true"
       only_selected="false"
       hide_knots="false" />
    <inkscape:path-effect
       effect="fillet_chamfer"
       id="path-effect20"
       is_visible="true"
       lpeversion="1"
       nodesatellites_param="F,0,0,1,0,0,0,1 @ F,0,0,1,0,0,0,1 @ F,0,0,1,0,0,0,1 @ F,0,0,1,0,0,0,1 @ F,0,0,1,0,0,0,1"
       radius="0"
       unit="px"
       method="auto"
       mode="F"
       chamfer_steps="1"
       flexible="false"
       use_knot_distance="true"
       apply_no_radius="true"
       apply_with_radius="true"
       only_selected="false"
       hide_knots="false" />
    <inkscape:path-effect
       effect="fillet_chamfer"
       id="path-effect18"
       is_visible="true"
       lpeversion="1"
       nodesatellites_param="F,0,0,1,0,0,0,1 @ F,0,0,1,0,0,0,1 @ F,0,0,1,0,0,0,1 @ F,0,0,1,0,0,0,1 @ F,0,0,1,0,0,0,1 @ F,0,0,1,0,0,0,1 @ F,0,0,1,0,0,0,1 @ F,0,0,1,0,0,0,1 @ F,0,0,1,0,0,0,1 @ F,0,0,1,0,0,0,1 @ F,0,0,1,0,0,0,1 @ F,0,0,1,0,0,0,1 @ F,0,0,1,0,0,0,1 @ F,0,0,1,0,0,0,1 @ F,0,0,1,0,0,0,1 @ F,0,0,1,0,0,0,1 @ F,0,0,1,0,4.4373414,0,1 @ F,0,0,1,0,2.7077605,0,1 @ F,0,0,1,0,0,0,1 @ F,0,0,1,0,0,0,1 @ F,0,0,1,0,0,0,1 @ F,0,0,1,0,0,0,1 @ F,0,0,1,0,0,0,1 @ F,0,0,1,0,0,0,1 @ F,0,0,1,0,0,0,1 @ F,0,0,1,0,0,0,1 @ F,0,0,1,0,0,0,1 @ F,0,0,1,0,0,0,1 @ F,0,0,1,0,0,0,1 @ F,0,0,1,0,0,0,1 @ F,0,0,1,0,0,0,1 @ F,0,0,1,0,0,0,1 @ F,0,0,1,0,0,0,1"
       radius="0"
       unit="px"
       method="auto"
       mode="F"
       chamfer_steps="1"
       flexible="false"
       use_knot_distance="true"
       apply_no_radius="true"
       apply_with_radius="true"
       only_selected="false"
       hide_knots="false" />
    <inkscape:path-effect
       effect="fillet_chamfer"
       id="path-effect17"
       is_visible="true"
       lpeversion="1"
       nodesatellites_param="F,0,0,1,0,0,0,1 @ F,0,0,1,0,0,0,1 @ F,0,0,1,0,0,0,1 @ F,0,0,1,0,0,0,1 @ F,0,0,1,0,0,0,1 @ F,0,0,1,0,0,0,1 @ F,0,0,1,0,0,0,1 @ F,0,0,1,0,0,0,1 @ F,0,0,1,0,0,0,1 @ F,0,0,1,0,0,0,1 @ F,0,0,1,0,0,0,1 @ F,0,0,1,0,0,0,1 @ F,0,0,1,0,0,0,1 @ F,0,0,1,0,0,0,1 @ F,0,0,1,0,0,0,1 @ F,0,0,1,0,0,0,1 @ F,0,0,1,0,0,0,1 @ F,0,0,1,0,0,0,1 @ F,0,0,1,0,0,0,1 @ F,0,0,1,0,0,0,1 @ F,0,0,1,0,0,0,1 @ F,0,0,1,0,2.4444437,0,1 @ F,0,0,1,0,0,0,1 @ F,0,0,1,0,0,0,1 @ F,0,0,1,0,0,0,1 @ F,0,0,1,0,0,0,1 @ F,0,0,1,0,0,0,1 @ F,0,0,1,0,0,0,1 @ F,0,0,1,0,0,0,1 @ F,0,0,1,0,0,0,1"
       radius="0"
       unit="px"
       method="auto"
       mode="F"
       chamfer_steps="1"
       flexible="false"
       use_knot_distance="true"
       apply_no_radius="true"
       apply_with_radius="true"
       only_selected="false"
       hide_knots="false" />
    <inkscape:path-effect
       effect="fillet_chamfer"
       id="path-effect16"
       is_visible="true"
       lpeversion="1"
       nodesatellites_param="F,0,0,1,0,0,0,1 @ F,0,0,1,0,0,0,1 @ F,0,0,1,0,0,0,1 @ F,0,0,1,0,0,0,1 @ F,0,0,1,0,0,0,1 @ F,0,0,1,0,0,0,1 @ F,0,0,1,0,0,0,1 @ F,0,0,1,0,0,0,1 @ F,0,0,1,0,0,0,1 @ F,0,0,1,0,0,0,1 @ F,0,0,1,0,0,0,1 @ F,0,0,1,0,0,0,1 @ F,0,0,1,0,0,0,1 @ F,0,0,1,0,0,0,1 @ F,0,0,1,0,0,0,1 @ F,0,0,1,0,0,0,1 @ F,0,0,1,0,0,0,1 @ F,0,1,1,0,4.543003,0,1 @ F,0,0,1,0,0,0,1 @ F,0,0,1,0,4.543003,0,1 @ F,0,0,1,0,0,0,1 @ F,0,0,1,0,0,0,1 @ F,0,0,1,0,0,0,1 @ F,0,0,1,0,0,0,1 @ F,0,0,1,0,0,0,1 @ F,0,0,1,0,0,0,1"
       radius="0"
       unit="px"
       method="auto"
       mode="F"
       chamfer_steps="1"
       flexible="false"
       use_knot_distance="true"
       apply_no_radius="true"
       apply_with_radius="true"
       only_selected="false"
       hide_knots="false" />
    <inkscape:path-effect
       effect="fillet_chamfer"
       id="path-effect15"
       is_visible="true"
       lpeversion="1"
       nodesatellites_param="F,0,0,1,0,0,0,1 @ F,0,0,1,0,0,0,1 @ F,0,0,1,0,0,0,1 @ F,0,0,1,0,0,0,1 @ F,0,0,1,0,0,0,1 @ F,0,0,1,0,0,0,1 @ F,0,0,1,0,0,0,1 @ F,0,0,1,0,0,0,1 @ F,0,0,1,0,0,0,1 @ F,0,0,1,0,0,0,1 @ F,0,0,1,0,0,0,1 @ F,0,0,1,0,0,0,1 @ F,0,0,1,0,0,0,1 @ F,0,0,1,0,0,0,1 @ F,0,0,1,0,0,0,1 @ F,0,0,1,0,0,0,1 @ F,0,0,1,0,0,0,1 @ F,0,0,1,0,0,0,1 @ F,0,0,1,0,0,0,1 @ F,0,0,1,0,0,0,1 @ F,0,0,1,0,0,0,1 @ F,0,0,1,0,0,0,1 @ F,0,0,1,0,0,0,1 @ F,0,0,1,0,0,0,1 @ F,0,0,1,0,0,0,1"
       radius="0"
       unit="px"
       method="auto"
       mode="F"
       chamfer_steps="1"
       flexible="false"
       use_knot_distance="true"
       apply_no_radius="true"
       apply_with_radius="true"
       only_selected="false"
       hide_knots="false" />
    <inkscape:path-effect
       effect="offset"
       id="path-effect12"
       is_visible="true"
       lpeversion="1.3"
       linejoin_type="miter"
       unit="mm"
       offset="4.1"
       miter_limit="4"
       attempt_force_join="false"
       update_on_knot_move="true" />
    <inkscape:path-effect
       effect="fillet_chamfer"
       id="path-effect8"
       is_visible="true"
       lpeversion="1"
       nodesatellites_param="F,0,0,1,0,0,0,1 @ F,0,0,1,0,6.2511759,0,1 @ F,0,0,1,0,0,0,1 @ F,0,0,1,0,0,0,1 @ F,0,0,1,0,0,0,1 @ F,0,0,1,0,0,0,1"
       radius="0"
       unit="px"
       method="auto"
       mode="F"
       chamfer_steps="1"
       flexible="false"
       use_knot_distance="true"
       apply_no_radius="true"
       apply_with_radius="true"
       only_selected="false"
       hide_knots="false" />
    <inkscape:path-effect
       effect="fillet_chamfer"
       id="path-effect7"
       is_visible="true"
       lpeversion="1"
       nodesatellites_param="F,0,0,1,0,0,0,1 @ F,0,0,1,0,0,0,1 @ F,0,0,1,0,0,0,1 @ F,0,0,1,0,0,0,1 @ F,0,0,1,0,15.04532,0,1 @ F,0,0,1,0,0,0,1 @ F,0,0,1,0,0,0,1 @ F,0,0,1,0,0,0,1 @ F,0,0,1,0,0,0,1 @ F,0,0,1,0,0,0,1 @ F,0,0,1,0,0,0,1 @ F,0,0,1,0,0,0,1"
       radius="0"
       unit="px"
       method="auto"
       mode="F"
       chamfer_steps="1"
       flexible="false"
       use_knot_distance="true"
       apply_no_radius="true"
       apply_with_radius="true"
       only_selected="false"
       hide_knots="false" />
    <inkscape:path-effect
       effect="fillet_chamfer"
       id="path-effect6"
       is_visible="true"
       lpeversion="1"
       nodesatellites_param="F,0,0,1,0,0,0,1 @ F,0,0,1,0,0,0,1 @ F,0,0,1,0,3.1731064,0,1 @ F,0,0,1,0,4.9704862,0,1 @ F,0,0,1,0,0,0,1 @ F,0,0,1,0,0,0,1 @ F,0,0,1,0,0,0,1 @ F,0,0,1,0,12.751118,0,1 @ F,0,0,1,0,8.8704862,0,1 @ F,0,0,1,0,0,0,1"
       radius="0"
       unit="px"
       method="auto"
       mode="F"
       chamfer_steps="1"
       flexible="false"
       use_knot_distance="true"
       apply_no_radius="true"
       apply_with_radius="true"
       only_selected="false"
       hide_knots="false" />
  </defs>
  <g
     inkscape:groupmode="layer"
     id="layer2"
     inkscape:label="pc"
     transform="matrix(1.1359742,0,0,1.1367163,-12.89694,3.9946142)"
     style="opacity:1;stroke-width:0.880014">
    <g
       id="g6"
       inkscape:label="mainPc">
      <path
         id="path5"
         style="display:inline;opacity:1;fill:#808080;fill-rule:evenodd;stroke-width:0.880014;stroke-linecap:square;stroke-miterlimit:16;stroke-dasharray:none;paint-order:stroke fill markers"
         d="m 46.822135,1.1659089 c -6.924107,0 -12.564243,5.6405095 -12.564244,12.5646321 v 74.132806 c 0,3.109516 1.251285,6.608317 3.130917,8.80483 -5.617935,0.01474 -10.201182,3.865013 -10.201183,9.486273 v 2.10516 c 0,5.63029 7.936186,10.22683 13.314562,10.22683 h 36.280809 c -0.221893,-0.30535 -0.414389,-0.61288 -0.576666,-0.91822 H 40.502187 c -4.901546,0 -12.396779,-4.17748 -12.396779,-9.30861 v -2.10516 c 1e-6,-5.13114 4.177362,-8.574244 9.308502,-8.574244 h 1.926004 L 38.562429,96.797043 C 36.470247,94.689647 35.175675,91.060975 35.175675,87.863347 V 13.730541 c 0,-6.4260338 5.220442,-11.646417 11.64646,-11.646417 H 166.02942 c 6.42598,0 11.64646,5.2203224 11.64646,11.646417 v 74.132806 c 0,3.197581 -1.29467,6.826324 -3.38675,8.933696 l -0.77748,0.783163 h 1.926 c 5.13114,0 9.3085,3.443104 9.3085,8.574244 v 2.10516 c 0,5.13113 -7.49523,9.30861 -12.39678,9.30861 h -19.28789 c -0.5297,0.32649 -1.07955,0.63225 -1.64128,0.91822 h 20.92917 c 5.37838,0 13.31456,-4.59654 13.31456,-10.22683 v -2.10516 c 0,-5.62126 -4.58325,-9.471538 -10.20118,-9.486273 1.87957,-2.196499 3.13092,-5.695336 3.13092,-8.80483 V 13.730541 c 0,-6.9241822 -5.64018,-12.5646321 -12.56425,-12.5646321 z m 0,3.3048181 c -5.104358,0 -9.259674,4.1554412 -9.259674,9.259814 v 74.132462 c 0,4.325717 2.43621,7.941013 6.453308,8.952253 0.350268,-0.928559 0.781408,-1.637413 1.183249,-2.138149 0.133144,-0.165911 0.319689,-0.361144 0.488636,-0.548111 -3.246479,-0.288931 -5.18581,-2.935998 -5.18581,-6.265993 V 13.730541 c 0,-3.527122 2.793154,-6.3223506 6.320291,-6.3223506 H 166.02942 c 3.52713,0 6.3203,2.7953096 6.3203,6.3223506 v 74.132462 c 0,3.527041 -2.79317,6.322694 -6.3203,6.322694 h -3.17355 c 0.14859,1.106202 0.25412,2.264909 0.25412,3.492791 0,2.811272 -0.35486,4.752272 -0.87446,6.545032 h 13.20212 c 2.23234,0 3.9844,-0.30142 3.9844,1.93093 v 2.1055 c 0,2.23234 -4.93988,3.98214 -7.07233,3.98214 h -13.85925 c -0.77037,1.07518 -1.60448,2.05815 -2.45866,2.93953 h 16.31791 c 3.63923,0 10.00964,-3.11198 10.00964,-6.92167 v -2.1055 c 0,-3.8097 -3.11201,-4.86839 -6.92171,-4.86839 h -9.39653 v -4.1629 h -0.0117 c 5.10435,0 9.25968,-4.155703 9.25968,-9.260157 V 13.730541 c 0,-5.1044545 -4.15533,-9.259814 -9.25968,-9.259814 z M 37.41391,101.28606 c -3.809705,0 -6.921715,1.05869 -6.921716,4.86839 v 2.1055 c 0,3.80969 6.370416,6.92167 10.00965,6.92167 h 34.828998 c -0.219135,-0.81341 -0.33298,-1.5836 -0.32805,-2.62578 -0.0071,-0.11183 0.0049,-0.20457 3.44e-4,-0.31375 h -8.366648 c -0.510446,0.40121 -1.103128,0.85497 -2.144016,1.51994 -1.176475,0.86112 -3.358672,1.15034 -4.12332,1.16804 -0.233016,0.005 -2.139471,0.24641 -3.515361,-0.29794 -1.106918,-0.43792 -1.894742,-1.40022 -2.365467,-2.39004 h -13.98648 c -2.132455,0 -7.072329,-1.7498 -7.07233,-3.98214 v -2.1055 c 0,-1.67426 0.985604,-1.92343 2.420142,-1.9433 0.478179,-0.007 1.006169,0.0124 1.564254,0.0124 h 9.481058 c -0.816506,-0.22496 -1.662727,-0.60462 -2.34002,-1.23471 -0.530751,-0.49376 -0.826442,-1.10537 -1.002375,-1.70275 z m 50.835359,10.95603 c -0.600018,0.31765 -1.138854,0.62718 -1.576634,0.90207 0.245327,0.43114 0.499254,0.91839 0.706649,1.47251 0.05917,0.15808 0.11461,0.36802 0.171246,0.56495 h 30.41717 c -1.56413,-0.86013 -3.02915,-1.76083 -5.06998,-2.7897 -0.11402,-0.0575 -0.19445,-0.0943 -0.30501,-0.14983 z m -0.451498,5.32613 c -0.02452,0.30511 -0.05132,0.6086 -0.133765,0.91822 h 37.770784 c -0.81074,-0.31627 -1.5804,-0.61567 -2.30735,-0.91822 z"
         sodipodi:nodetypes="scscsssccsssscsssssssscssssccssscssssssscscssssssscscssssccsssscccsssssssscccccsscssssscscsccsccsccccccc" />
    </g>
  </g>
  <g
     inkscape:label="cat"
     inkscape:groupmode="layer"
     id="layer1"
     transform="matrix(0.81580045,0,0,0.81441099,-3.4524894,34.703793)"
     style="display:inline;stroke-width:1.22684">
    <g
       id="g27"
       transform="matrix(0.92968767,0,0,0.92968767,9.3227387,5.2757587)"
       style="display:inline;stroke-width:1.31963"
       inkscape:label="catMain">
      <path
         id="path28"
         style="color:#000000;font-style:normal;font-variant:normal;font-weight:normal;font-stretch:normal;font-size:medium;line-height:normal;font-family:sans-serif;font-variant-ligatures:normal;font-variant-position:normal;font-variant-caps:normal;font-variant-numeric:normal;font-variant-alternates:normal;font-variant-east-asian:normal;font-feature-settings:normal;font-variation-settings:normal;text-indent:0;text-align:start;text-decoration-line:none;text-decoration-style:solid;text-decoration-color:#000000;letter-spacing:normal;word-spacing:normal;text-transform:none;writing-mode:lr-tb;direction:ltr;text-orientation:mixed;dominant-baseline:auto;baseline-shift:baseline;text-anchor:start;white-space:normal;shape-padding:0;shape-margin:0;inline-size:0;clip-rule:nonzero;display:inline;overflow:visible;visibility:visible;isolation:auto;mix-blend-mode:normal;color-interpolation:sRGB;color-interpolation-filters:linearRGB;solid-color:#000000;solid-opacity:1;fill:none;fill-opacity:1;fill-rule:evenodd;stroke:#808080;stroke-width:1.31962;stroke-linecap:square;stroke-linejoin:miter;stroke-miterlimit:16;stroke-dasharray:none;stroke-dashoffset:0;stroke-opacity:1;paint-order:stroke fill markers;color-rendering:auto;image-rendering:auto;shape-rendering:auto;text-rendering:auto;enable-background:accumulate;stop-color:#000000;stop-opacity:1"
         d="m 67.431641,16.367187 c -5.76585,5.775687 -8.767579,20.277736 -8.767579,27.894532 0,6.540857 2.107537,12.589519 5.664063,17.521484 -2.287358,3.02809 -3.787109,6.432486 -3.787109,10.316406 v 20.326172 c -2.360096,0.01865 -4.993673,0.04823 -6.484375,0.1875 -3.573889,0.333905 -5.741708,2.582115 -6.970704,4.117188 -0.929931,1.161526 -2.081554,3.14666 -2.386718,6.466801 -0.09278,1.0095 0.06649,2.99153 1.386718,4.22265 1.575762,1.46941 4.007658,1.92716 5.449219,1.89844 1.244469,-0.0248 6.316161,-0.0105 10.78711,0 -0.799552,0.88559 -1.866265,2.58375 -2.216797,3.96875 -0.505765,1.99835 -0.640382,4.71836 -0.357422,6.73242 0.22859,1.62706 1.472836,3.85011 3.412109,4.61914 1.727817,0.68519 4.045332,0.37179 4.748047,0.35547 1.012544,-0.0235 3.982311,-0.43593 5.431641,-1.50391 4.600237,-2.93297 3.930444,-3.57253 9.341797,-5.84179 1.600337,-0.67111 2.72399,-0.9375 5.677734,-1.20899 1.019469,-0.0937 2.317734,-0.10646 3.664062,-0.10351 -0.71115,1.68788 -1.015408,3.72281 -0.849609,6.32812 -3.3e-5,0.004 3.1e-5,0.006 0,0.01 -0.02081,2.41157 0.343906,3.70152 1.25,6.11719 0.968841,2.58295 4.161134,5.86647 7.306641,6.41015 3.821161,0.66048 6.466381,-0.56616 7.548831,-3.11133 0.88914,-2.09064 0.37115,-4.46882 -0.1211,-5.78711 -0.46908,-1.25625 -1.16371,-2.39904 -1.61523,-3.10937 0.0225,-0.0167 0.0387,-0.0295 0.0625,-0.0469 1.25892,-0.91793 3.69055,-2.2572 6.25976,-3.39648 2.56922,-1.13928 5.34623,-2.1166 7.29688,-2.52148 4.09395,-0.84978 9.54859,-0.84648 14.68164,-0.46094 4.81125,0.36137 7.82718,1.7571 13.36719,4.55664 5.24389,2.6499 7.6646,4.60055 12.65234,6.65625 4.73986,1.95353 10.98654,4.7973 17.82031,5.88672 6.98885,1.11415 16.2532,-0.3532 18.58008,-0.68555 3.21428,-0.45911 9.94825,-3.36858 13.31055,-6.6543 3.24885,-3.17484 6.42565,-7.52291 8.13672,-12.08203 1.6121,-4.29542 2.79101,-7.57066 2.79101,-14.0332 0,-6.376034 -1.73685,-11.79323 -2.63281,-15.083985 -0.33426,-1.227696 -2.30783,-6.975315 -4.0957,-12.064453 l -0.0391,-0.107422 -0.0469,-0.105469 c -0.73637,-1.627646 -1.86567,-3.914678 -3.00586,-6.083984 -2.60819,-4.962287 -6.9465,-12.515235 -11.26562,-16.273438 -6.40573,-5.573821 -12.96723,-9.852624 -25.59961,-12.755859 -3.03995,-0.698658 -6.3106,-0.937356 -9.62891,-0.859375 -3.32473,0.07814 -6.75842,0.474636 -10.16016,1.068359 -5.07753,0.886213 -11.11584,2.31856 -15.33203,3.763672 -5.35516,1.835496 -12.16222,5.259601 -18.80859,5.986328 -0.52332,0.05722 -1.06273,0.08343 -1.59961,0.115235 0.15534,-1.228333 0.24414,-2.477872 0.24414,-3.75 0,-7.616377 -2.99955,-22.118618 -8.76562,-27.894532 -0.76212,-0.763417 -1.67531,-1.365136 -2.80274,-1.583984 -3.80941,-0.739452 -6.58794,3.628858 -8.496093,6.085938 -2.780232,3.580035 -5.701229,6.879867 -10.087891,6.808593 -3.09587,-0.0503 -5.288269,-1.596662 -7.367187,-3.828125 -1.995762,-2.142203 -3.570673,-4.788077 -5.458985,-6.818359 -0.457325,-0.491709 -0.994462,-0.999729 -1.589843,-1.404297 -0.780237,-0.530179 -1.772401,-0.967464 -3.079725,-0.938815 -1.307324,0.02865 -2.499722,0.725473 -3.451465,1.678839 z"
         sodipodi:nodetypes="sscsscssssccccssssscssccsssssssssssssscsssssscssssccsccsscs" />
      <path
         id="path13"
         style="color:#000000;font-style:normal;font-variant:normal;font-weight:normal;font-stretch:normal;font-size:medium;line-height:normal;font-family:sans-serif;font-variant-ligatures:normal;font-variant-position:normal;font-variant-caps:normal;font-variant-numeric:normal;font-variant-alternates:normal;font-variant-east-asian:normal;font-feature-settings:normal;font-variation-settings:normal;text-indent:0;text-align:start;text-decoration-line:none;text-decoration-style:solid;text-decoration-color:#000000;letter-spacing:normal;word-spacing:normal;text-transform:none;writing-mode:lr-tb;direction:ltr;text-orientation:mixed;dominant-baseline:auto;baseline-shift:baseline;text-anchor:start;white-space:normal;shape-padding:0;shape-margin:0;inline-size:0;clip-rule:nonzero;display:inline;overflow:visible;visibility:visible;isolation:auto;mix-blend-mode:normal;color-interpolation:sRGB;color-interpolation-filters:linearRGB;solid-color:#000000;solid-opacity:1;vector-effect:none;fill:#808080;fill-opacity:1;fill-rule:evenodd;stroke:none;stroke-width:1.31963;stroke-linecap:square;stroke-linejoin:miter;stroke-miterlimit:16;stroke-dasharray:none;stroke-dashoffset:0;stroke-opacity:1;-inkscape-stroke:none;paint-order:stroke fill markers;color-rendering:auto;image-rendering:auto;shape-rendering:auto;text-rendering:auto;enable-background:accumulate;stop-color:#000000;stop-opacity:1"
         d="m 71.065061,17.323391 c -0.567975,0.01249 -1.149689,0.290585 -1.767095,0.909044 -4.939244,4.94767 -7.994415,18.480156 -7.994415,26.030047 0,10.308183 5.697223,19.280526 14.107398,23.939037 -1.657194,0.325414 -3.104285,-1.221518 -8.353397,-4.316157 -0.399894,-0.23576 -0.952474,-0.122809 -1.214459,0.260538 -1.680733,2.459312 -2.66326,5.087016 -2.66326,7.953883 V 93.21263 c 0,0.620425 -0.0998,1.526414 0.494436,1.819637 -2.495919,0.05135 -7.245561,0.0099 -9.370595,0.20843 -2.54349,0.237636 -4.093446,1.810061 -5.158103,3.139868 -0.661787,0.826602 -1.567048,2.328375 -1.818083,5.059595 -0.05705,0.62072 0.110402,1.63011 0.559846,2.04922 0.917663,0.85573 2.606018,1.20941 3.595478,1.1897 2.475811,-0.0494 12.17007,0.073 15.129233,0 1.680646,-1.05504 2.286642,-1.39979 3.504316,-2.05851 0.07132,0.0534 1.120776,-0.52521 1.596102,-0.53036 0.475326,-0.005 0.788855,0.265 0.919857,0.59537 -2.565223,1.24915 -6.494721,4.35365 -8.345671,6.39478 -0.616461,0.6798 -1.398919,1.96865 -1.623399,2.8556 -0.424716,1.67812 -0.541801,4.01548 -0.302842,5.71635 0.127289,0.90602 0.933337,2.2012 1.77173,2.53367 1.070017,0.42433 2.550756,0.19728 3.714967,0.17025 0.904623,-0.021 3.193371,-0.44577 3.930768,-0.99365 4.558218,-2.87624 4.144832,-3.74081 9.883058,-6.14715 1.824807,-0.76524 3.381705,-1.12227 6.455998,-1.40484 3.074294,-0.28256 4.09911,0.0233 6.543554,-0.15065 2.635807,-1.91175 8.355947,-5.57239 13.029427,-7.27132 5.41064,-1.96691 9.51413,-2.5273 12.8198,-2.91957 1.80869,-0.21464 12.15944,-1.31662 20.50777,0.51901 5.84174,1.28447 9.37619,2.40903 19.23769,6.52273 0.61203,0.25531 6.124,3.3383 14.41591,5.64103 0.71427,0.19836 2.59155,0.68158 4.34537,0.85591 1.82344,0.18125 4.79145,-0.11382 6.5796,-0.53088 1.1987,-0.27957 3.08305,-0.90239 4.5071,-1.62617 2.38991,-1.21469 4.56676,-2.7295 6.79798,-4.61229 0.83637,-0.70576 3.32148,-3.16002 4.0312,-3.99268 1.00452,-1.17852 2.04122,-2.57583 2.70601,-3.60368 1.10154,-1.7031 1.97196,-1.77834 2.24453,-1.50338 -0.18784,0.41429 -0.39238,0.91756 -0.56448,1.24955 -0.73113,1.41049 -1.90296,3.57921 -3.92819,5.8701 -3.87742,4.38602 -6.00244,5.41644 -9.25729,7.38173 -3.25484,1.96529 -6.4851,3.09741 -10.27088,3.07641 -3.78578,-0.0211 -10.38222,-1.85284 -12.90221,-2.56307 -2.51999,-0.71023 -13.66642,-5.83275 -16.56722,-7.06393 -2.90079,-1.23118 -9.84461,-3.45001 -15.64169,-4.17531 -5.79708,-0.7253 -14.01736,-0.33891 -20.19308,0.9142 -6.17572,1.25311 -11.25839,3.16801 -15.05559,5.40784 -5.483498,3.16258 -8.171692,4.85654 -7.690539,11.45076 -0.01856,2.04087 0.246845,2.94803 1.082609,5.17619 0.697357,1.85917 3.228142,4.38097 5.28583,4.73663 5.67635,0.98114 5.26937,-2.86562 4.90059,-5.04308 -0.33167,-1.95835 -0.63585,-3.54308 -3.1165,-6.52944 1.31002,0.41452 0.80605,0.97948 2.3496,-0.146 3.0871,-2.25095 9.77834,-5.2955 14.31136,-6.2364 4.53301,-0.94091 10.15457,-0.9038 15.41508,-0.50869 5.2605,0.39511 8.78466,2.01479 14.36079,4.83258 5.57614,2.81779 7.57928,4.55685 12.46803,6.57175 4.88875,2.0149 10.74181,4.68717 17.23008,5.72151 6.48826,1.03435 15.31203,-0.34021 17.79197,-0.69442 2.47995,-0.35422 8.78267,-2.94047 11.83866,-5.92685 3.05599,-2.98638 5.95618,-6.98005 7.51131,-11.12367 1.55513,-4.14362 2.62309,-7.15487 2.62309,-13.10583 0,-5.950958 -1.60818,-10.961691 -2.54171,-14.390455 -0.46677,-1.714383 -1.83376,-6.035046 -2.51442,-7.888361 C 209.8952,70.2011 205.75195,60.292565 197.6845,52.682753 191.54602,47.34147 185.30897,43.287057 173.22433,40.509706 c -2.77744,-0.638326 -5.809,-0.867846 -8.9735,-0.79348 -3.16451,0.07437 -6.46199,0.452447 -9.76975,1.029769 -5.03398,0.87861 -10.87124,2.269125 -14.93043,3.660427 -4.42736,1.517488 -10.51064,4.278806 -16.86027,5.732347 -2.17318,0.497479 -2.75222,0.435865 -4.80479,2.213282 -1.67963,1.730722 -4.17502,5.319413 -4.95002,6.53047 -0.63391,1.108061 -2.79265,3.86344 -4.25422,5.217978 -1.309,1.213136 -3.86867,3.142879 -4.71671,3.536091 -1.20689,0.559603 -1.66376,0.55 -1.98599,0.452975 8.30267,-4.688778 13.91323,-13.599196 13.91323,-23.827083 0,-7.549891 -3.05517,-21.082376 -7.99441,-26.030047 -4.93924,-4.94767 -8.131646,12.270546 -19.562165,12.084826 C 78.333601,30.154756 75.040881,17.235937 71.065061,17.323391 Z m 5.226087,22.138488 c 1.487962,-0.01874 3.162216,0.722575 4.359794,1.486871 2.016973,1.287235 4.229614,4.388085 2.675621,6.751798 -1.553996,2.36371 -5.312529,1.851648 -7.329501,0.564413 -2.01697,-1.287236 -3.840243,-5.097987 -2.286253,-7.461699 0.63131,-0.960258 1.562269,-1.328563 2.580339,-1.341383 z m 25.160102,0 c 1.01807,0.01282 1.94903,0.381125 2.58034,1.341383 1.55399,2.363712 -0.26979,6.174463 -2.28676,7.461699 -2.016983,1.287235 -5.774479,1.799297 -7.328475,-0.564413 -1.553993,-2.363713 0.658133,-5.464563 2.675106,-6.751798 1.197578,-0.764296 2.871843,-1.505611 4.359789,-1.486871 z m -9.849576,12.240117 c 0.395119,-0.007 0.625771,0.225168 0.625771,0.9854 0,1.719264 -1.778004,3.618003 -3.045418,4.107211 0.07126,0.265664 0.167827,0.53167 0.325504,0.773875 1.10677,1.794268 3.551273,2.948398 6.246377,2.948978 2.187626,-0.0026 4.24207,-0.767569 5.529442,-2.059023 -0.53437,2.422193 -3.395126,4.204115 -6.755232,4.207815 -2.445593,-3.8e-5 -4.705624,-0.951705 -5.930659,-2.497036 -1.225035,1.545331 -3.485066,2.496998 -5.930659,2.497036 -3.360106,-0.0037 -6.220881,-1.785622 -6.755235,-4.207815 1.287368,1.291454 3.341819,2.056423 5.529445,2.059023 2.695104,-5.8e-4 5.139607,-1.15471 6.246377,-2.948978 0.162253,-0.249235 0.259895,-0.523766 0.331685,-0.797091 -1.230183,-0.508994 -2.922323,-2.295334 -2.922324,-4.044269 10e-7,-2.027287 1.442369,-0.337925 3.466203,-0.337925 1.264896,0 2.38019,-0.675561 3.038723,-0.687201 z"
         sodipodi:nodetypes="cccccccccccccccccccccccccccccccccccccccccccccccccccccccccccccccccccccccccccccccccccccccccccccccccccccccccccc" />
    </g>
  </g>
</svg>
